<svg width="48" height="48" viewBox="0 0 48 48" fill="none" xmlns="http://www.w3.org/2000/svg">
<circle cx="24" cy="24" r="24" fill="#D9D9D9"/>
<circle cx="24" cy="24" r="24" fill="url(#paint0_linear_114_422)" fill-opacity="0.5"/>
<path fill-rule="evenodd" clip-rule="evenodd" d="M14.8333 37.3333C15.9384 37.3333 16.9982 36.8943 17.7796 36.1129C18.561 35.3315 19 34.2717 19 33.1667C19 32.0616 18.561 31.0018 17.7796 30.2204C16.9982 29.439 15.9384 29 14.8333 29C13.7283 29 12.6685 29.439 11.8871 30.2204C11.1057 31.0018 10.6667 32.0616 10.6667 33.1667C10.6667 34.2717 11.1057 35.3315 11.8871 36.1129C12.6685 36.8943 13.7283 37.3333 14.8333 37.3333ZM14.8333 39C16.3804 39 17.8642 38.3854 18.9581 37.2915C20.0521 36.1975 20.6667 34.7138 20.6667 33.1667C20.6667 31.6196 20.0521 30.1358 18.9581 29.0419C17.8642 27.9479 16.3804 27.3333 14.8333 27.3333C13.2862 27.3333 11.8025 27.9479 10.7085 29.0419C9.61458 30.1358 9 31.6196 9 33.1667C9 34.7138 9.61458 36.1975 10.7085 37.2915C11.8025 38.3854 13.2862 39 14.8333 39Z" fill="#0A0000"/>
<path d="M16.2917 33.1667C16.2917 33.5534 16.138 33.9244 15.8645 34.1979C15.591 34.4714 15.2201 34.625 14.8333 34.625C14.4466 34.625 14.0756 34.4714 13.8021 34.1979C13.5286 33.9244 13.375 33.5534 13.375 33.1667C13.375 32.7799 13.5286 32.409 13.8021 32.1355C14.0756 31.862 14.4466 31.7083 14.8333 31.7083C15.2201 31.7083 15.591 31.862 15.8645 32.1355C16.138 32.409 16.2917 32.7799 16.2917 33.1667Z" fill="#0A0000"/>
<path fill-rule="evenodd" clip-rule="evenodd" d="M33.1667 37.3333C34.2717 37.3333 35.3315 36.8943 36.1129 36.1129C36.8943 35.3315 37.3333 34.2717 37.3333 33.1667C37.3333 32.0616 36.8943 31.0018 36.1129 30.2204C35.3315 29.439 34.2717 29 33.1667 29C32.0616 29 31.0018 29.439 30.2204 30.2204C29.439 31.0018 29 32.0616 29 33.1667C29 34.2717 29.439 35.3315 30.2204 36.1129C31.0018 36.8943 32.0616 37.3333 33.1667 37.3333ZM33.1667 39C34.7138 39 36.1975 38.3854 37.2915 37.2915C38.3854 36.1975 39 34.7138 39 33.1667C39 31.6196 38.3854 30.1358 37.2915 29.0419C36.1975 27.9479 34.7138 27.3333 33.1667 27.3333C31.6196 27.3333 30.1358 27.9479 29.0419 29.0419C27.9479 30.1358 27.3333 31.6196 27.3333 33.1667C27.3333 34.7138 27.9479 36.1975 29.0419 37.2915C30.1358 38.3854 31.6196 39 33.1667 39Z" fill="#0A0000"/>
<path d="M34.625 33.1667C34.625 33.5534 34.4714 33.9244 34.1979 34.1979C33.9244 34.4714 33.5534 34.625 33.1667 34.625C32.7799 34.625 32.409 34.4714 32.1355 34.1979C31.862 33.9244 31.7083 33.5534 31.7083 33.1667C31.7083 32.7799 31.862 32.409 32.1355 32.1355C32.409 31.862 32.7799 31.7083 33.1667 31.7083C33.5534 31.7083 33.9244 31.862 34.1979 32.1355C34.4714 32.409 34.625 32.7799 34.625 33.1667Z" fill="#0A0000"/>
<path fill-rule="evenodd" clip-rule="evenodd" d="M33.1667 19C34.2717 19 35.3315 18.561 36.1129 17.7796C36.8943 16.9982 37.3333 15.9384 37.3333 14.8333C37.3333 13.7283 36.8943 12.6685 36.1129 11.8871C35.3315 11.1057 34.2717 10.6667 33.1667 10.6667C32.0616 10.6667 31.0018 11.1057 30.2204 11.8871C29.439 12.6685 29 13.7283 29 14.8333C29 15.9384 29.439 16.9982 30.2204 17.7796C31.0018 18.561 32.0616 19 33.1667 19ZM33.1667 20.6667C33.9327 20.6667 34.6913 20.5158 35.399 20.2226C36.1067 19.9295 36.7498 19.4998 37.2915 18.9581C37.8331 18.4164 38.2628 17.7734 38.556 17.0657C38.8491 16.3579 39 15.5994 39 14.8333C39 14.0673 38.8491 13.3087 38.556 12.601C38.2628 11.8933 37.8331 11.2502 37.2915 10.7085C36.7498 10.1669 36.1067 9.73719 35.399 9.44404C34.6913 9.15088 33.9327 9 33.1667 9C31.6196 9 30.1358 9.61458 29.0419 10.7085C27.9479 11.8025 27.3333 13.2862 27.3333 14.8333C27.3333 16.3804 27.9479 17.8642 29.0419 18.9581C30.1358 20.0521 31.6196 20.6667 33.1667 20.6667Z" fill="#0A0000"/>
<path d="M34.625 14.8333C34.625 15.2201 34.4714 15.591 34.1979 15.8645C33.9244 16.138 33.5534 16.2917 33.1667 16.2917C32.7799 16.2917 32.409 16.138 32.1355 15.8645C31.862 15.591 31.7083 15.2201 31.7083 14.8333C31.7083 14.4466 31.862 14.0756 32.1355 13.8021C32.409 13.5286 32.7799 13.375 33.1667 13.375C33.5534 13.375 33.9244 13.5286 34.1979 13.8021C34.4714 14.0756 34.625 14.4466 34.625 14.8333Z" fill="#0A0000"/>
<path fill-rule="evenodd" clip-rule="evenodd" d="M14.8333 19C15.9384 19 16.9982 18.561 17.7796 17.7796C18.561 16.9982 19 15.9384 19 14.8333C19 13.7283 18.561 12.6685 17.7796 11.8871C16.9982 11.1057 15.9384 10.6667 14.8333 10.6667C13.7283 10.6667 12.6685 11.1057 11.8871 11.8871C11.1057 12.6685 10.6667 13.7283 10.6667 14.8333C10.6667 15.9384 11.1057 16.9982 11.8871 17.7796C12.6685 18.561 13.7283 19 14.8333 19ZM14.8333 20.6667C15.5994 20.6667 16.3579 20.5158 17.0657 20.2226C17.7734 19.9295 18.4164 19.4998 18.9581 18.9581C19.4998 18.4164 19.9295 17.7734 20.2226 17.0657C20.5158 16.3579 20.6667 15.5994 20.6667 14.8333C20.6667 14.0673 20.5158 13.3087 20.2226 12.601C19.9295 11.8933 19.4998 11.2502 18.9581 10.7085C18.4164 10.1669 17.7734 9.73719 17.0657 9.44404C16.3579 9.15088 15.5994 9 14.8333 9C13.2862 9 11.8025 9.61458 10.7085 10.7085C9.61458 11.8025 9 13.2862 9 14.8333C9 16.3804 9.61458 17.8642 10.7085 18.9581C11.8025 20.0521 13.2862 20.6667 14.8333 20.6667Z" fill="#0A0000"/>
<path d="M16.2917 14.8333C16.2917 15.2201 16.138 15.591 15.8645 15.8645C15.591 16.138 15.2201 16.2917 14.8333 16.2917C14.4466 16.2917 14.0756 16.138 13.8021 15.8645C13.5286 15.591 13.375 15.2201 13.375 14.8333C13.375 14.4466 13.5286 14.0756 13.8021 13.8021C14.0756 13.5286 14.4466 13.375 14.8333 13.375C15.2201 13.375 15.591 13.5286 15.8645 13.8021C16.138 14.0756 16.2917 14.4466 16.2917 14.8333Z" fill="#0A0000"/>
<path fill-rule="evenodd" clip-rule="evenodd" d="M19.6 23.8133L14.8333 33.1667L24 28.3025L33.1667 33.1667L28.4 23.8133L32.8 14.8333L24 19.3233L15.2 14.8333L19.6 23.8133ZM18.8975 18.5908L21.0967 23.0792C21.2106 23.3115 21.2689 23.5672 21.2668 23.826C21.2648 24.0847 21.2025 24.3395 21.085 24.57L18.715 29.22L23.2192 26.8308C23.4597 26.7033 23.7278 26.6366 24 26.6366C24.2722 26.6366 24.5403 26.7033 24.7808 26.8308L29.285 29.22L26.915 24.57C26.7975 24.3395 26.7352 24.0847 26.7332 23.826C26.7312 23.5672 26.7894 23.3115 26.9033 23.0792L29.1033 18.5908L24.7575 20.8075C24.5229 20.9272 24.2633 20.9896 24 20.9896C23.7367 20.9896 23.4771 20.9272 23.2425 20.8075L18.8975 18.5908Z" fill="#0A0000"/>
<defs>
<linearGradient id="paint0_linear_114_422" x1="48" y1="0" x2="0" y2="48" gradientUnits="userSpaceOnUse">
<stop stop-color="#F10202"/>
<stop offset="1" stop-color="#0008F8"/>
</linearGradient>
</defs>
</svg>
